<svg xmlns="http://www.w3.org/2000/svg" viewBox="0 0 800 1000" width="800" height="1000"><defs><linearGradient id="bg" x1="0" y1="0" x2="1" y2="1"><stop stop-color="#141a2a"/><stop offset="1" stop-color="#071514"/></linearGradient><linearGradient id="neon" x1="0" y1="0" x2="1" y2="1"><stop stop-color="#00f5d4"/><stop offset="1" stop-color="#875bff"/></linearGradient><radialGradient id="glow"><stop stop-color="#00f5d4" stop-opacity=".2"/><stop offset="1" stop-color="#00f5d4" stop-opacity="0"/></radialGradient></defs><rect width="800" height="1000" fill="url(#bg)"/><circle cx="400" cy="390" r="340" fill="url(#glow)"/><g fill="none" stroke="#00f5d4" stroke-opacity=".16"><circle cx="400" cy="390" r="255"/><circle cx="400" cy="390" r="290"/><path d="M0 200H800M0 300H800M0 400H800M0 500H800M0 600H800M100 0V1000M200 0V1000M300 0V1000M400 0V1000M500 0V1000M600 0V1000M700 0V1000"/></g><path d="M165 1000c20-215 95-335 235-335s215 120 235 335" fill="#101b29" stroke="url(#neon)" stroke-width="5"/><circle cx="400" cy="360" r="145" fill="#182437" stroke="url(#neon)" stroke-width="5"/><path d="M250 345c5-150 85-210 160-210s155 60 160 210c-45-55-100-80-160-80s-115 25-160 80" fill="#080c14" stroke="#875bff" stroke-width="8"/><path d="M320 375h42m76 0h42" stroke="#00f5d4" stroke-width="8" stroke-linecap="round"/><path d="M360 450q40 25 80 0" stroke="#875bff" stroke-width="7" fill="none" stroke-linecap="round"/><rect x="250" y="730" width="300" height="90" fill="#070b12" stroke="#00f5d4" stroke-opacity=".5"/><text x="400" y="768" text-anchor="middle" font-family="Arial,sans-serif" font-size="20" letter-spacing="5" fill="#00f5d4">PROFILE IMAGE</text><text x="400" y="800" text-anchor="middle" font-family="Arial,sans-serif" font-size="15" letter-spacing="3" fill="#aeb8ca">REPLACE THIS PLACEHOLDER</text></svg>